<svg xmlns="http://www.w3.org/2000/svg" viewBox="0 0 470 390" width="470" height="390">
	<defs>
		<linearGradient id="grd1" gradientUnits="userSpaceOnUse"  x1="189.983" y1="389.994" x2="280.024" y2="-0.017">
			<stop offset="0" stop-color="#ff8f5a"  />
			<stop offset="0.987" stop-color="#ff2f95"  />
		</linearGradient>
	</defs>
	<style>
		tspan { white-space:pre }
		.shp0 { fill: url(#grd1) } 
	</style>
	<g id="человек">
		<path id="Ellipse 1" class="shp0" d="M201.92 20.25C256.48 -5.54 307.97 -5.62 351.02 13.74C394.18 32.95 428.9 71.59 452.48 119.62C475.11 168.13 475.09 220.23 456.61 262.37C437.87 305.15 406.69 337.39 364.19 360.41C341.68 372 318.02 379.94 287.95 384.81C258.27 389.61 222.17 391.35 183.93 388.87C108.04 384.11 22.98 361.74 5.04 311.27C-5.13 286.22 1.25 257.5 13.89 228.59C26.74 199.65 45.84 170.52 65.9 143.67C86.16 116.79 107.38 92.19 129.23 71.32C151.28 50.42 173.96 33.25 201.92 20.25L201.92 20.25Z" />
	</g>
</svg>