<svg xmlns="http://www.w3.org/2000/svg" viewBox="0 0 919 763" width="919" height="763">
	<defs>
		<linearGradient id="grd1" gradientUnits="userSpaceOnUse"  x1="371.174" y1="762.676" x2="547.308" y2="-0.244">
			<stop offset="0" stop-color="#ff8f5a"  />
			<stop offset="0.987" stop-color="#ff2f95"  />
		</linearGradient>
	</defs>
	<style>
		tspan { white-space:pre }
		.shp0 { fill: url(#grd1) } 
	</style>
	<g id="1_экран">
		<g id="bg+Человек+фигура">
			<path id="Ellipse 1" class="shp0" d="M394.52 39.41C501.26 -11.05 601.99 -11.2 686.21 26.67C770.65 64.24 838.57 139.84 884.7 233.79C928.97 328.67 928.93 430.58 892.77 513.03C856.11 596.7 795.1 659.78 711.97 704.8C667.94 727.47 621.65 743 562.82 752.53C504.76 761.93 434.14 765.33 359.32 760.48C210.85 751.16 44.45 707.4 9.36 608.69C-10.53 559.68 1.95 503.49 26.68 446.95C51.81 390.33 89.18 333.35 128.42 280.83C168.06 228.24 209.57 180.12 252.31 139.31C295.45 98.41 339.82 64.83 394.52 39.41L394.52 39.41Z" />
		</g>
	</g>
</svg>