<?xml version="1.0" standalone="no"?>
<!DOCTYPE svg PUBLIC "-//W3C//DTD SVG 20010904//EN"
 "http://www.w3.org/TR/2001/REC-SVG-20010904/DTD/svg10.dtd">
<svg version="1.0" xmlns="http://www.w3.org/2000/svg"
 width="919.000000pt" height="919.000000pt" viewBox="0 0 919.000000 919.000000"
 preserveAspectRatio="xMidYMid meet">
<metadata>
Created by potrace 1.11, written by Peter Selinger 2001-2013
</metadata>
<g transform="translate(0.000000,919.000000) scale(0.100000,-0.100000)"
fill="#000000" stroke="none">
<path d="M5303 8400 c-24 -3 -52 -6 -63 -5 -11 1 -20 -1 -20 -4 0 -3 -15 -6
-33 -7 -62 -2 -179 -22 -402 -69 -165 -35 -496 -147 -695 -235 -52 -23 -108
-47 -125 -53 -16 -7 -32 -14 -35 -17 -3 -3 -66 -36 -141 -73 -156 -78 -346
-190 -516 -305 -105 -71 -132 -91 -180 -132 -7 -5 -15 -10 -18 -10 -4 0 -12
-6 -19 -12 -7 -7 -30 -26 -51 -43 -21 -16 -43 -35 -49 -40 -6 -6 -20 -17 -32
-25 -20 -14 -89 -72 -138 -115 -305 -269 -562 -525 -831 -831 -33 -37 -67 -75
-75 -83 -15 -16 -231 -276 -304 -366 -22 -27 -43 -52 -46 -55 -3 -3 -28 -34
-54 -70 -27 -36 -55 -72 -63 -80 -7 -8 -47 -60 -88 -115 -41 -55 -78 -104 -83
-110 -4 -5 -19 -26 -32 -45 -14 -19 -29 -40 -35 -46 -12 -14 -63 -86 -155
-219 -38 -55 -74 -105 -80 -112 -5 -7 -15 -24 -22 -38 -6 -14 -14 -25 -18 -25
-4 0 -13 -13 -20 -30 -7 -16 -16 -30 -20 -30 -4 0 -12 -11 -18 -25 -7 -14 -16
-31 -22 -38 -18 -21 -70 -104 -153 -242 -7 -11 -25 -40 -40 -64 -15 -23 -39
-64 -53 -90 -13 -25 -45 -82 -70 -126 -24 -44 -59 -109 -77 -145 -18 -36 -36
-68 -42 -72 -5 -4 -6 -8 -2 -8 5 0 0 -12 -11 -27 -11 -16 -20 -30 -20 -33 0
-3 -16 -40 -36 -82 -20 -42 -36 -82 -36 -88 0 -5 -4 -10 -8 -10 -5 0 -9 -6
-10 -12 0 -7 -25 -73 -56 -145 -30 -73 -52 -133 -49 -133 3 0 0 -7 -7 -15 -7
-8 -9 -15 -6 -15 4 0 1 -10 -5 -22 -7 -12 -18 -43 -25 -68 -7 -25 -24 -84 -38
-132 -13 -49 -23 -88 -20 -88 2 0 -2 -13 -10 -29 -9 -16 -13 -31 -10 -33 2 -3
0 -26 -5 -51 -22 -94 -26 -158 -25 -367 0 -166 4 -231 17 -285 10 -38 20 -81
23 -94 6 -29 59 -170 85 -228 10 -24 19 -47 19 -53 0 -5 4 -10 8 -10 5 0 14
-16 22 -35 8 -19 17 -35 21 -35 3 0 12 -14 19 -30 7 -17 16 -30 21 -30 5 0 9
-7 9 -15 0 -8 4 -15 8 -15 4 0 16 -14 26 -30 18 -31 206 -225 261 -270 177
-144 436 -298 655 -390 41 -18 93 -40 115 -50 23 -10 53 -22 68 -25 15 -4 30
-11 33 -16 3 -5 11 -9 19 -9 8 0 26 -5 42 -12 15 -6 33 -12 38 -14 6 -1 37
-12 70 -24 33 -11 65 -22 70 -24 6 -1 30 -9 55 -16 25 -8 47 -14 50 -15 3 0
37 -10 75 -22 82 -26 334 -90 385 -98 19 -3 53 -11 74 -16 22 -6 51 -12 65
-14 14 -2 26 -4 26 -5 0 -2 15 -5 65 -14 14 -2 38 -7 54 -10 16 -3 50 -8 75
-12 25 -4 55 -8 66 -11 54 -11 116 -21 185 -29 30 -3 63 -10 73 -16 10 -5 17
-5 17 1 0 6 13 6 33 1 32 -8 78 -14 197 -25 36 -4 76 -8 90 -11 14 -2 59 -6
100 -9 41 -3 93 -8 115 -10 37 -4 91 -7 335 -21 131 -8 821 -7 950 0 177 11
222 14 310 22 47 4 100 7 118 8 17 0 32 3 32 6 0 3 17 5 38 6 34 0 111 9 187
20 17 2 47 6 68 9 94 13 147 21 197 30 14 3 41 7 60 10 19 4 53 10 75 15 22 5
56 12 75 15 19 3 53 11 75 16 22 5 53 12 69 15 16 3 40 10 53 15 14 5 29 7 34
3 5 -3 9 0 9 5 0 6 3 10 8 9 4 -1 32 4 62 12 30 8 57 15 60 15 11 2 157 48
182 57 15 6 30 10 33 9 3 -1 19 6 35 14 17 9 30 13 30 9 0 -4 6 -2 13 3 6 5
48 22 92 38 44 15 85 31 90 35 6 4 21 11 35 15 53 16 367 168 430 207 36 22
63 39 122 72 18 10 84 53 147 95 62 42 120 81 129 86 8 6 22 16 31 23 9 7 48
37 87 66 72 54 83 63 169 137 28 24 59 50 69 58 72 59 321 317 396 410 19 24
40 49 45 55 41 47 205 273 205 282 0 3 11 20 25 38 14 18 25 36 25 39 0 3 13
25 29 49 57 86 201 362 201 385 0 7 5 13 10 13 6 0 10 5 10 11 0 5 9 30 20 54
39 87 122 317 136 380 1 6 9 37 18 70 20 72 25 91 31 130 3 17 8 37 10 45 2 8
7 31 10 50 3 19 8 46 10 60 11 55 29 206 29 252 1 21 4 38 7 38 7 0 3 525 -4
560 -3 14 -8 52 -11 84 -6 58 -10 85 -21 151 -3 17 -8 46 -11 65 -11 84 -98
427 -130 513 -9 23 -25 67 -36 97 -11 30 -24 64 -28 75 -7 18 -21 52 -25 65
-31 88 -175 367 -283 550 -45 76 -52 87 -89 142 -18 26 -33 50 -33 53 0 6 -61
95 -82 119 -10 11 -18 25 -18 32 0 7 -3 14 -7 16 -5 2 -42 48 -83 103 -41 55
-79 105 -85 112 -5 7 -15 18 -21 25 -141 173 -347 389 -480 503 -31 28 -62 55
-68 60 -75 69 -367 279 -461 331 -11 6 -38 21 -60 34 -74 42 -220 116 -285
144 -36 16 -78 34 -95 42 -101 45 -384 132 -500 154 -22 5 -50 10 -61 13 -32
8 -117 22 -199 33 -22 3 -53 8 -70 10 -48 9 -586 12 -632 4z"/>
</g>
</svg>
